<svg xmlns="http://www.w3.org/2000/svg" xmlns:xlink="http://www.w3.org/1999/xlink" version="1.1" x="0px" y="0px" viewBox="0 0 100 125" enable-background="new 0 0 100 100" xml:space="preserve"><path fill-rule="evenodd" clip-rule="evenodd" d="M28.7,60.4c-0.7-0.7-0.7-2,0-2.7l8.6-8.6c0.7-0.7,2-0.7,2.7,0s0.7,2,0,2.7  l-8.6,8.6C30.7,61.1,29.4,61.1,28.7,60.4z"/><path fill-rule="evenodd" clip-rule="evenodd" d="M37.3,51.8l-8.6-8.6c-0.7-0.7-0.7-2,0-2.7c0.7-0.7,2-0.7,2.7,0l8.6,8.6  c0.7,0.7,0.7,2,0,2.7S38,52.5,37.3,51.8z"/><path fill-rule="evenodd" clip-rule="evenodd" d="M47.3,59.1c0-1.1,0.9-1.9,1.9-1.9h12.1c1.1,0,1.9,0.9,1.9,1.9S62.4,61,61.4,61  H49.2C48.2,61,47.3,60.1,47.3,59.1z"/><path fill-rule="evenodd" clip-rule="evenodd" d="M85.6,11.2H15.4c-1.8,0-3.2,1.4-3.2,3.2v70.3c0,1.8,1.4,3.2,3.2,3.2h70.3  c1.8,0,3.2-1.4,3.2-3.2V14.4C88.8,12.6,87.4,11.2,85.6,11.2z M21.8,17.6c1.8,0,3.2,1.4,3.2,3.2s-1.4,3.2-3.2,3.2s-3.2-1.4-3.2-3.2  S20,17.6,21.8,17.6z M82.4,79.8c0,0.9-0.7,1.6-1.6,1.6H20.2c-0.9,0-1.6-0.7-1.6-1.6V31.9c0-0.9,0.7-1.6,1.6-1.6h60.7  c0.9,0,1.6,0.7,1.6,1.6V79.8z"/></svg>
